<svg width="32" height="31" viewBox="0 0 32 31" fill="none" xmlns="http://www.w3.org/2000/svg">
<g clip-path="url(#clip0_1123_343)">
<path d="M5.09367 5.66122L4.75777 5.33491C4.42186 5.00861 3.87925 5.01697 3.55196 5.33491L3.54334 5.34328C3.20744 5.66959 3.20744 6.1967 3.54334 6.51464L3.87925 6.84095C4.21515 7.16725 4.74915 7.16725 5.08506 6.84095L5.09367 6.83258C5.42957 6.51464 5.42957 5.97916 5.09367 5.66122Z" fill="white"/>
<path d="M2.47534 10.9825H1.59682C1.12311 10.9825 0.744141 11.3507 0.744141 11.8109V11.8192C0.744141 12.2794 1.12311 12.6475 1.59682 12.6475H2.46673C2.94905 12.6559 3.32802 12.2878 3.32802 11.8276V11.8192C3.32802 11.3507 2.94905 10.9825 2.47534 10.9825Z" fill="white"/>
<path d="M10.227 2.65752H10.2184C9.73604 2.65752 9.35707 3.02566 9.35707 3.48584V4.28906C9.35707 4.74923 9.73604 5.11737 10.2097 5.11737H10.2184C10.7007 5.12574 11.0797 4.7576 11.0797 4.29742V3.48584C11.0797 3.02566 10.7007 2.65752 10.227 2.65752Z" fill="white"/>
<path d="M16.8934 5.34328C16.5575 5.01697 16.0149 5.01697 15.679 5.33491L15.3431 5.66122C15.0072 5.98753 15.0072 6.51464 15.3431 6.83258L15.3517 6.84095C15.6876 7.16725 16.2302 7.16725 16.5575 6.84095L16.8934 6.51464C17.2293 6.18833 17.2293 5.66959 16.8934 5.34328Z" fill="white"/>
<path d="M10.2184 6.79911C7.36748 6.79911 5.0506 9.04979 5.0506 11.8192C5.0506 13.6144 6.02408 15.1916 7.48545 16.0791C8.18471 14.1112 10.1082 12.6977 12.3716 12.6977C12.4607 12.6977 12.5492 12.6999 12.6372 12.7043C13.0103 11.418 13.7575 10.284 14.7575 9.42019C13.8804 7.8595 12.1752 6.79911 10.2184 6.79911Z" fill="white"/>
<path d="M3.54334 18.2952C3.87925 18.6215 4.42186 18.6215 4.75777 18.2952L5.09367 17.9689C5.42957 17.6425 5.42096 17.1154 5.09367 16.7975L5.08506 16.7891C4.74915 16.4628 4.20654 16.4628 3.87063 16.7891L3.53473 17.1154C3.20744 17.4501 3.20744 17.9689 3.54334 18.2952Z" fill="white"/>
<path d="M9.78772 26.503H26.5829C29.437 26.503 31.7507 24.2555 31.7507 21.4829C31.7507 19.1283 30.0819 17.1523 27.8306 16.6101C27.8598 16.3558 27.8749 16.0972 27.8749 15.8353C27.8749 12.0231 24.6936 8.93266 20.7692 8.93266C17.5142 8.93266 14.7704 11.0587 13.9291 13.9593C13.8411 13.955 13.7526 13.9528 13.6635 13.9528C10.8095 13.9528 8.49578 16.2003 8.49578 18.9729C8.49578 19.0441 8.4973 19.115 8.50033 19.1856C6.99259 19.7012 5.9119 21.097 5.9119 22.7379C5.9119 24.8173 7.64716 26.503 9.78772 26.503Z" fill="white"/>
</g>
<defs>
<clipPath id="clip0_1123_343">
<rect width="31.0065" height="30.1206" fill="white" transform="translate(0.744141 0.147469)"/>
</clipPath>
</defs>
</svg>
