<svg width="25" height="25" viewBox="0 0 25 25" fill="none" xmlns="http://www.w3.org/2000/svg">
<path d="M13.1769 2.33333L12.4998 1.75L11.8228 2.33333C11.4582 2.60417 4.1665 8.95833 4.1665 14.5833C4.1665 16.7935 5.04448 18.9131 6.60728 20.4759C8.17008 22.0387 10.2897 22.9167 12.4998 22.9167C14.71 22.9167 16.8296 22.0387 18.3924 20.4759C19.9552 18.9131 20.8332 16.7935 20.8332 14.5833C20.8332 8.95833 13.5415 2.60417 13.1769 2.33333ZM14.8228 19.2396L13.8957 17.375C14.4146 17.116 14.8511 16.7176 15.1565 16.2246C15.4619 15.7316 15.624 15.1633 15.6248 14.5833H17.7082C17.7072 15.5509 17.4367 16.499 16.927 17.3214C16.4174 18.1439 15.6887 18.8081 14.8228 19.2396Z" fill="white"/>
</svg>
