<svg width="26" height="26" viewBox="0 0 26 26" fill="none" xmlns="http://www.w3.org/2000/svg">
<path d="M5.88581 18.4628H19.322C21.6052 18.4628 23.4562 16.6118 23.4562 14.3286C23.4562 12.3895 22.1212 10.7622 20.3201 10.3157C20.3435 10.1062 20.3555 9.89328 20.3555 9.67757C20.3555 6.53809 17.8105 3.99304 14.671 3.99304C12.067 3.99304 9.87199 5.74391 9.19893 8.13261C9.12856 8.12905 9.05772 8.12725 8.98646 8.12725C6.70321 8.12725 4.85226 9.97819 4.85226 12.2615C4.85226 12.3201 4.85348 12.3785 4.8559 12.4366C3.64971 12.8612 2.78516 14.0107 2.78516 15.3621C2.78516 17.0746 4.17337 18.4628 5.88581 18.4628Z" fill="white" fill-opacity="0.6"/>
<path d="M8.38141 19.4963C8.1188 19.4963 7.87873 19.6447 7.76128 19.8796L6.38751 22.6271C6.15701 23.0881 6.49223 23.6305 7.00764 23.6305C7.27025 23.6305 7.51032 23.4821 7.62777 23.2473L9.00154 20.4997C9.23204 20.0387 8.89682 19.4963 8.38141 19.4963Z" fill="white" fill-opacity="0.6"/>
<path d="M11.4821 19.4963C11.9975 19.4963 12.3327 20.0387 12.1022 20.4997L10.7284 23.2473C10.611 23.4821 10.3709 23.6305 10.1083 23.6305C9.59288 23.6305 9.25766 23.0881 9.48816 22.6271L10.8619 19.8796C10.9794 19.6447 11.2195 19.4963 11.4821 19.4963Z" fill="white" fill-opacity="0.6"/>
<path d="M17.6834 19.4963C18.1988 19.4963 18.534 20.0387 18.3035 20.4997L16.9297 23.2473C16.8123 23.4821 16.5722 23.6305 16.3096 23.6305C15.7942 23.6305 15.459 23.0881 15.6895 22.6271L17.0632 19.8796C17.1807 19.6447 17.4208 19.4963 17.6834 19.4963Z" fill="white" fill-opacity="0.6"/>
<path d="M14.5827 19.4963C15.0981 19.4963 15.4333 20.0387 15.2029 20.4997L13.8291 23.2473C13.7116 23.4821 13.4716 23.6305 13.2089 23.6305C12.6935 23.6305 12.3583 23.0881 12.5888 22.6271L13.9626 19.8796C14.08 19.6447 14.3201 19.4963 14.5827 19.4963Z" fill="white" fill-opacity="0.6"/>
</svg>
