<svg width="25" height="25" viewBox="0 0 25 25" fill="none" xmlns="http://www.w3.org/2000/svg">
<path d="M8.3335 5.20833C8.3335 4.10326 8.77248 3.04345 9.55388 2.26205C10.3353 1.48065 11.3951 1.04166 12.5002 1.04166C13.6052 1.04166 14.665 1.48065 15.4464 2.26205C16.2278 3.04345 16.6668 4.10326 16.6668 5.20833V10.6823C17.9408 11.5693 18.8984 12.8398 19.4002 14.3088C19.9021 15.7778 19.9221 17.3686 19.4572 18.8497C18.9924 20.3309 18.0669 21.625 16.8156 22.5437C15.5644 23.4624 14.0525 23.9579 12.5002 23.9579C10.9478 23.9579 9.43597 23.4624 8.18468 22.5437C6.93339 21.625 6.00797 20.3309 5.54311 18.8497C5.07825 17.3686 5.09821 15.7778 5.60008 14.3088C6.10196 12.8398 7.05955 11.5693 8.3335 10.6823V5.20833ZM9.52516 12.3906C8.61493 13.0241 7.93063 13.9315 7.57189 14.9808C7.21314 16.0301 7.19869 17.1665 7.53062 18.2247C7.86256 19.2828 8.52355 20.2073 9.41738 20.8637C10.3112 21.5201 11.3912 21.874 12.5002 21.874C13.6091 21.874 14.6891 21.5201 15.5829 20.8637C16.4768 20.2073 17.1378 19.2828 17.4697 18.2247C17.8016 17.1665 17.7872 16.0301 17.4284 14.9808C17.0697 13.9315 16.3854 13.0241 15.4752 12.3906L14.5835 11.7687V5.20833C14.5835 4.6558 14.364 4.12589 13.9733 3.73519C13.5826 3.34449 13.0527 3.125 12.5002 3.125C11.9476 3.125 11.4177 3.34449 11.027 3.73519C10.6363 4.12589 10.4168 4.6558 10.4168 5.20833V11.7687L9.52516 12.3906ZM11.4585 12.6312V5.20833H13.5418V12.6312C14.5215 12.8872 15.3745 13.491 15.9416 14.3299C16.5087 15.1687 16.7511 16.1853 16.6235 17.1898C16.496 18.1943 16.0072 19.118 15.2484 19.7885C14.4896 20.459 13.5127 20.8304 12.5002 20.8333C11.4853 20.8343 10.505 20.4649 9.74316 19.7944C8.98135 19.1239 8.49044 18.1984 8.36258 17.1916C8.23472 16.1848 8.47869 15.166 9.04871 14.3264C9.61873 13.4867 10.4756 12.884 11.4585 12.6312ZM12.5002 18.75C13.0527 18.75 13.5826 18.5305 13.9733 18.1398C14.364 17.7491 14.5835 17.2192 14.5835 16.6667C14.5835 16.1141 14.364 15.5842 13.9733 15.1935C13.5826 14.8028 13.0527 14.5833 12.5002 14.5833C11.9476 14.5833 11.4177 14.8028 11.027 15.1935C10.6363 15.5842 10.4168 16.1141 10.4168 16.6667C10.4168 17.2192 10.6363 17.7491 11.027 18.1398C11.4177 18.5305 11.9476 18.75 12.5002 18.75Z" fill="white"/>
</svg>
