<svg width="26" height="26" viewBox="0 0 26 26" fill="none" xmlns="http://www.w3.org/2000/svg">
<path d="M16.0274 18.4628H19.1189C21.4021 18.4628 23.2531 16.6118 23.2531 14.3286C23.2531 12.3895 21.918 10.7622 20.117 10.3157C20.1404 10.1062 20.1524 9.8933 20.1524 9.67759C20.1524 6.53811 17.6074 3.99306 14.4679 3.99306C11.8639 3.99306 9.66887 5.74393 8.9958 8.13263C8.92543 8.12907 8.8546 8.12726 8.78334 8.12726C6.50008 8.12726 4.64913 9.97821 4.64913 12.2615C4.64913 12.3201 4.65036 12.3785 4.65278 12.4366C3.44659 12.8612 2.58203 14.0107 2.58203 15.3621C2.58203 17.0746 3.97024 18.4628 5.68269 18.4628H8.6265L13.0537 10.7151C13.5796 9.79491 14.9846 10.168 14.9846 11.2279V15.3621H16.0182C16.8118 15.3621 17.3093 16.2194 16.9156 16.9085L16.0274 18.4628Z" fill="white" fill-opacity="0.6"/>
<path d="M9.81689 18.4628L13.9511 11.2279V16.3957H16.0182L11.884 23.6305V18.4628H9.81689Z" fill="white" fill-opacity="0.6"/>
</svg>
