<svg width="38" height="38" viewBox="0 0 38 38" fill="none" xmlns="http://www.w3.org/2000/svg">
<path fill-rule="evenodd" clip-rule="evenodd" d="M0.770752 19C0.770752 8.9323 8.93223 0.770828 18.9999 0.770828C29.0676 0.770828 37.2291 8.9323 37.2291 19C37.2291 29.0677 29.0676 37.2292 18.9999 37.2292C8.93223 37.2292 0.770752 29.0677 0.770752 19ZM16.6037 13.3932C14.6588 14.9933 13.3594 17.2439 12.9462 19.7283L11.578 27.9535C11.2622 29.8524 13.4701 31.1271 14.9567 29.9041L21.3959 24.6067C23.3408 23.0066 24.6401 20.7561 25.0534 18.2717L26.4215 10.0465C26.7374 8.14755 24.5294 6.87278 23.0429 8.09578L16.6037 13.3932Z" fill="white"/>
<path d="M15.8749 19C15.8749 17.2741 17.274 15.875 18.9999 15.875C20.7258 15.875 22.1249 17.2741 22.1249 19C22.1249 20.7259 20.7258 22.125 18.9999 22.125C17.274 22.125 15.8749 20.7259 15.8749 19Z" fill="white"/>
</svg>
