<svg width="50" height="50" viewBox="0 0 50 50" fill="none" xmlns="http://www.w3.org/2000/svg">
<path d="M18.2291 25C18.2291 21.2606 21.2605 18.2292 24.9999 18.2292C28.7393 18.2292 31.7707 21.2606 31.7707 25C31.7707 28.7394 28.7393 31.7708 24.9999 31.7708C21.2605 31.7708 18.2291 28.7394 18.2291 25Z" fill="white"/>
<path fill-rule="evenodd" clip-rule="evenodd" d="M23.8764 3.83023C24.4906 3.19473 25.5092 3.19473 26.1234 3.83023L31.4824 9.375H39.0624C39.9254 9.375 40.6249 10.0746 40.6249 10.9375V18.5175L46.1697 23.8765C46.8052 24.4907 46.8052 25.5093 46.1697 26.1235L40.6249 31.4825V39.0625C40.6249 39.9254 39.9254 40.625 39.0624 40.625H31.4824L26.1234 46.1698C25.5092 46.8053 24.4906 46.8053 23.8764 46.1698L18.5174 40.625H10.9374C10.0745 40.625 9.37491 39.9254 9.37491 39.0625V31.4825L3.83014 26.1235C3.19464 25.5093 3.19464 24.4907 3.83014 23.8765L9.37491 18.5175V10.9375C9.37491 10.0746 10.0745 9.375 10.9374 9.375H18.5174L23.8764 3.83023ZM24.9999 15.1042C19.5346 15.1042 15.1041 19.5347 15.1041 25C15.1041 30.4653 19.5346 34.8958 24.9999 34.8958C30.4652 34.8958 34.8957 30.4653 34.8957 25C34.8957 19.5347 30.4652 15.1042 24.9999 15.1042Z" fill="white"/>
</svg>
